<?xml version="1.0" encoding="UTF-8" standalone="no"?>
<svg
   width="360"
   height="360"
   viewBox="0 0 360 360"
   version="1.1"
   id="svg7"
   sodipodi:docname="black-book-mark-monochrome-black-source.svg"
   xmlns:inkscape="http://www.inkscape.org/namespaces/inkscape"
   xmlns:sodipodi="http://sodipodi.sourceforge.net/DTD/sodipodi-0.dtd"
   xmlns="http://www.w3.org/2000/svg"
   xmlns:svg="http://www.w3.org/2000/svg">
  <defs
     id="defs7" />
  <sodipodi:namedview
     id="namedview7"
     pagecolor="#ffffff"
     bordercolor="#000000"
     borderopacity="0.25"
     inkscape:showpageshadow="2"
     inkscape:pageopacity="0.0"
     inkscape:pagecheckerboard="0"
     inkscape:deskcolor="#d1d1d1" />
  <g
     id="black-book-mark">
    <path
       fill="#0A0A0A"
       d="M42 44H126C148 44 164 51 180 69V287C164 317 145 332 112 332H92C65 332 42 309 42 282Z"
       id="path1" />
    <path
       fill="#0A0A0A"
       d="M162 44H239C289 44 321 72 321 116C321 148 305 171 274 183C312 193 334 221 334 257C334 305 297 332 248 332H162Z"
       id="path2" />
    <path
       fill="#0A0A0A"
       d="M126 44C148 46 166 57 182 77C194 92 201 108 201 128V260C201 287 186 311 162 332H147C172 308 185 286 185 260V126C185 104 178 87 165 72C154 59 141 50 126 44Z"
       id="path3" />
    <path
       fill="#0A0A0A"
       d="M135 49C151 55 165 66 177 82C185 94 190 109 190 126V261C190 286 179 307 158 326H150C169 305 178 284 178 261V126C178 108 174 94 166 82C157 68 147 57 135 49Z"
       id="path4" />
    <path
       fill="#0A0A0A"
       d="M143 53C158 62 169 73 178 88C184 99 186 112 186 127V260C186 282 177 302 160 320H154C169 302 176 282 176 260V127C176 111 173 98 167 87C160 74 152 63 143 53Z"
       id="path5" />
    <path
       fill="#0A0A0A"
       d="M151 59C162 68 170 78 176 91C180 101 182 113 182 127V259C182 279 175 296 162 312H157C168 296 173 278 173 259V128C173 114 171 103 167 94C163 82 158 70 151 59Z"
       id="path6" />
    <path
       fill="#0A0A0A"
       fill-rule="evenodd"
       d="M89 247C73 247 60 260 60 276C60 297 89 326 89 326S118 297 118 276C118 260 105 247 89 247ZM89 263A13 13 0 1 1 89 289A13 13 0 0 1 89 263Z"
       id="path7" />
    <circle
       cx="89"
       cy="276"
       r="9"
       fill="#F4EFE5"
       id="circle7" />
  </g>
</svg>
