<?xml version="1.0" encoding="UTF-8" standalone="no"?>
<svg
   width="1600"
   height="420"
   viewBox="0 0 1600 420"
   version="1.1"
   id="svg7"
   sodipodi:docname="black-book-primary-dark-source.svg"
   xmlns:inkscape="http://www.inkscape.org/namespaces/inkscape"
   xmlns:sodipodi="http://sodipodi.sourceforge.net/DTD/sodipodi-0.dtd"
   xmlns="http://www.w3.org/2000/svg"
   xmlns:svg="http://www.w3.org/2000/svg">
  <defs
     id="defs7" />
  <sodipodi:namedview
     id="namedview7"
     pagecolor="#ffffff"
     bordercolor="#000000"
     borderopacity="0.25"
     inkscape:showpageshadow="2"
     inkscape:pageopacity="0.0"
     inkscape:pagecheckerboard="0"
     inkscape:deskcolor="#d1d1d1" />
  <g
     transform="translate(30 56) scale(.76)"
     id="g7">
    <g
       id="black-book-mark">
      <path
         fill="#F4EFE5"
         d="M42 44H126C148 44 164 51 180 69V287C164 317 145 332 112 332H92C65 332 42 309 42 282Z"
         id="path1" />
      <path
         fill="#F4EFE5"
         d="M162 44H239C289 44 321 72 321 116C321 148 305 171 274 183C312 193 334 221 334 257C334 305 297 332 248 332H162Z"
         id="path2" />
      <path
         fill="#0A0A0A"
         d="M126 44C148 46 166 57 182 77C194 92 201 108 201 128V260C201 287 186 311 162 332H147C172 308 185 286 185 260V126C185 104 178 87 165 72C154 59 141 50 126 44Z"
         id="path3" />
      <path
         fill="#D07A32"
         d="M135 49C151 55 165 66 177 82C185 94 190 109 190 126V261C190 286 179 307 158 326H150C169 305 178 284 178 261V126C178 108 174 94 166 82C157 68 147 57 135 49Z"
         id="path4" />
      <path
         fill="#0A0A0A"
         d="M143 53C158 62 169 73 178 88C184 99 186 112 186 127V260C186 282 177 302 160 320H154C169 302 176 282 176 260V127C176 111 173 98 167 87C160 74 152 63 143 53Z"
         id="path5" />
      <path
         fill="#D07A32"
         d="M151 59C162 68 170 78 176 91C180 101 182 113 182 127V259C182 279 175 296 162 312H157C168 296 173 278 173 259V128C173 114 171 103 167 94C163 82 158 70 151 59Z"
         id="path6" />
      <path
         fill="#D07A32"
         fill-rule="evenodd"
         d="M89 247C73 247 60 260 60 276C60 297 89 326 89 326S118 297 118 276C118 260 105 247 89 247ZM89 263A13 13 0 1 1 89 289A13 13 0 0 1 89 263Z"
         id="path7" />
      <circle
         cx="89"
         cy="276"
         r="9"
         fill="#0A0A0A"
         id="circle7" />
    </g>
  </g>
  <path
     d="M 341.69238,122.30664 H 310.86719 V 278 h 30.82519 z m 47.48535,157.57422 c 16.92774,0 26.43653,-6.6875 32.28809,-17.4502 h 0.41797 V 278 h 30.09375 v -74.81641 c 0,-23.61523 -17.3457,-37.82617 -47.54395,-37.82617 -30.30273,0 -48.27539,14.41992 -49.63379,37.19922 h 28.94434 c 0.73145,-8.46387 8.25488,-14.31543 19.74902,-14.31543 11.28516,0 18.07715,5.64258 18.07715,13.79297 v 0.73144 c 0,7.10547 -7.10547,8.0459 -27.27246,10.03125 -22.98828,2.08985 -43.05078,9.19532 -43.05078,34.06446 0,22.04785 15.88281,33.01953 37.93066,33.01953 z m 8.56836,-21.4209 c -10.34472,0 -17.03222,-4.59766 -17.03222,-12.43457 0,-8.77734 8.35937,-12.85254 18.91308,-14.41992 9.92676,-1.56738 18.59961,-3.03027 22.15235,-5.01563 v 11.07618 c 0,11.9121 -9.19532,20.79394 -24.03321,20.79394 z m 118.54004,22.04785 c 29.36231,0 50.46973,-18.49511 51.82813,-43.99121 H 538.125 c -1.98535,11.59863 -8.98633,19.12207 -21.4209,19.12207 -15.46484,0 -24.76465,-12.64355 -24.76465,-32.70605 0,-20.167 9.19532,-32.91504 24.76465,-32.91504 12.33008,0 20.0625,7.62793 21.62988,18.91308 h 29.78028 c -1.98535,-25.70507 -22.7793,-43.78222 -51.82813,-43.78222 -33.12402,0 -55.38086,23.61523 -55.38086,57.78418 0,34.16894 22.15235,57.57519 55.38086,57.57519 z M 576.51953,278 h 30.8252 v -35.00488 l 8.88183,-9.82227 L 648.72363,278 h 36.04981 l -45.4541,-62.48633 43.15527,-47.85742 h -36.1543 l -38.66211,42.21484 h -0.31347 v -87.56445 h -30.8252 z m 148.36621,0 h 65.93457 c 35.42285,0 54.54492,-17.86816 54.54492,-43.88672 0,-22.15234 -14.6289,-35.52734 -33.64648,-37.30371 v -0.20898 c 17.13672,-4.28418 27.89941,-16.30079 27.89941,-34.27344 0,-23.92871 -18.80859,-40.02051 -52.35058,-40.02051 h -62.38184 z m 31.45215,-25.28711 v -41.4834 h 30.51172 c 16.19629,0 25.70508,8.15039 25.70508,21.10742 0,12.95704 -9.71778,20.37598 -26.22754,20.37598 z m 0,-65.72559 v -39.39355 h 28.52637 c 14.10644,0 22.77929,7.62793 22.77929,19.74902 0,12.0166 -8.67285,19.64453 -22.77929,19.64453 z m 148.94727,93.52051 c 33.54199,0 56.1123,-22.98828 56.1123,-57.57519 0,-34.58692 -22.57031,-57.78418 -56.1123,-57.78418 -33.4375,0 -56.00782,23.19726 -56.00782,57.78418 0,34.58691 22.57032,57.57519 56.00782,57.57519 z m 0,-24.97363 c -14.94239,0 -24.97364,-12.12109 -24.97364,-32.60156 0,-20.58496 10.13575,-32.81055 24.97364,-32.81055 14.94238,0 25.07812,12.22559 25.07812,32.81055 0,20.48047 -10.03125,32.60156 -25.07812,32.60156 z m 116.24124,24.97363 c 33.542,0 56.1123,-22.98828 56.1123,-57.57519 0,-34.58692 -22.5703,-57.78418 -56.1123,-57.78418 -33.43753,0 -56.00785,23.19726 -56.00785,57.78418 0,34.58691 22.57032,57.57519 56.00785,57.57519 z m 0,-24.97363 c -14.9424,0 -24.97367,-12.12109 -24.97367,-32.60156 0,-20.58496 10.13577,-32.81055 24.97367,-32.81055 14.9424,0 25.0781,12.22559 25.0781,32.81055 0,20.48047 -10.0313,32.60156 -25.0781,32.60156 z M 1086.5664,278 h 30.8252 v -35.00488 l 8.8818,-9.82227 L 1158.7705,278 h 36.0498 l -45.4541,-62.48633 43.1553,-47.85742 h -36.1543 l -38.6621,42.21484 h -0.3135 v -87.56445 h -30.8252 z"
     id="text7"
     style="font-weight:700;font-size:214px;font-family:'Inter Display', Inter, Arial, sans-serif;letter-spacing:-8;fill:#f4efe5"
     aria-label="lack Book" />
</svg>
