<?xml version="1.0" encoding="UTF-8" standalone="no"?>
<svg
   width="640"
   height="420"
   viewBox="0 0 640 420"
   version="1.1"
   id="svg7"
   sodipodi:docname="black-book-primary-light-source.svg"
   xmlns:inkscape="http://www.inkscape.org/namespaces/inkscape"
   xmlns:sodipodi="http://sodipodi.sourceforge.net/DTD/sodipodi-0.dtd"
   xmlns="http://www.w3.org/2000/svg"
   xmlns:svg="http://www.w3.org/2000/svg">
  <defs
     id="defs7" />
  <sodipodi:namedview
     id="namedview7"
     pagecolor="#ffffff"
     bordercolor="#000000"
     borderopacity="0.25"
     inkscape:showpageshadow="2"
     inkscape:pageopacity="0.0"
     inkscape:pagecheckerboard="0"
     inkscape:deskcolor="#d1d1d1" />
  <g
     transform="translate(30 56) scale(.76)"
     id="g7">
    <g
       id="black-book-mark">
      <path
         fill="#0A0A0A"
         d="M42 44H126C148 44 164 51 180 69V287C164 317 145 332 112 332H92C65 332 42 309 42 282Z"
         id="path1" />
      <path
         fill="#0A0A0A"
         d="M162 44H239C289 44 321 72 321 116C321 148 305 171 274 183C312 193 334 221 334 257C334 305 297 332 248 332H162Z"
         id="path2" />
      <path
         fill="#F4EFE5"
         d="M126 44C148 46 166 57 182 77C194 92 201 108 201 128V260C201 287 186 311 162 332H147C172 308 185 286 185 260V126C185 104 178 87 165 72C154 59 141 50 126 44Z"
         id="path3" />
      <path
         fill="#B86B2A"
         d="M135 49C151 55 165 66 177 82C185 94 190 109 190 126V261C190 286 179 307 158 326H150C169 305 178 284 178 261V126C178 108 174 94 166 82C157 68 147 57 135 49Z"
         id="path4" />
      <path
         fill="#F4EFE5"
         d="M143 53C158 62 169 73 178 88C184 99 186 112 186 127V260C186 282 177 302 160 320H154C169 302 176 282 176 260V127C176 111 173 98 167 87C160 74 152 63 143 53Z"
         id="path5" />
      <path
         fill="#B86B2A"
         d="M151 59C162 68 170 78 176 91C180 101 182 113 182 127V259C182 279 175 296 162 312H157C168 296 173 278 173 259V128C173 114 171 103 167 94C163 82 158 70 151 59Z"
         id="path6" />
      <path
         fill="#B86B2A"
         fill-rule="evenodd"
         d="M89 247C73 247 60 260 60 276C60 297 89 326 89 326S118 297 118 276C118 260 105 247 89 247ZM89 263A13 13 0 1 1 89 289A13 13 0 0 1 89 263Z"
         id="path7" />
      <circle
         cx="89"
         cy="276"
         r="9"
         fill="#0A0A0A"
         id="circle7" />
    </g>
  </g>
  <path
     d="M324.2420 122.3066L355.5897 122.3066L355.5897 278L324.2420 278L324.2420 122.3066ZM406.8367 280.2988L406.8367 280.2988Q395.7606 280.2988 386.9310 276.3804Q378.1014 272.4619 373.0335 264.6772Q367.9656 256.8926 367.9656 245.2939L367.9656 245.2939Q367.9656 235.5762 371.5706 228.9932Q375.1756 222.4102 381.3929 218.4395Q387.6102 214.4688 395.4993 212.3789Q403.3885 210.2891 412.0613 209.4531L412.0613 209.4531Q422.1971 208.4082 428.4144 207.5200Q434.6316 206.6318 437.5052 204.6987Q440.3787 202.7656 440.3787 199.0039L440.3787 199.0039L440.3787 198.4814Q440.3787 193.4658 438.2889 190.0176Q436.1990 186.5693 432.0716 184.7407Q427.9441 182.9121 422.0926 182.9121L422.0926 182.9121Q416.0320 182.9121 411.5389 184.7407Q407.0457 186.5693 404.2244 189.5996Q401.4031 192.6299 400.0447 196.3916L400.0447 196.3916L371.3094 191.6895Q374.3397 181.4492 381.3406 174.3438Q388.3416 167.2383 398.7386 163.4766Q409.1356 159.7148 422.1971 159.7148L422.1971 159.7148Q431.6014 159.7148 440.4832 161.9614Q449.3650 164.2080 456.4183 168.9102Q463.4715 173.6123 467.5989 181.1880Q471.7264 188.7637 471.7264 199.3174L471.7264 199.3174L471.7264 278L442.0506 278L442.0506 261.8037L441.0057 261.8037Q438.1844 267.2373 433.4822 271.3647Q428.7801 275.4922 422.1448 277.8955Q415.5096 280.2988 406.8367 280.2988ZM415.7186 258.2510L415.7186 258.2510Q423.1375 258.2510 428.7278 255.3252Q434.3182 252.3994 437.4529 247.3838Q440.5877 242.3682 440.5877 236.2031L440.5877 236.2031L440.5877 223.5596Q439.2293 224.6045 436.4080 225.4404Q433.5867 226.2764 430.1385 226.9033Q426.6902 227.5303 423.3465 228.0527Q420.0027 228.5752 417.3904 228.8887L417.3904 228.8887Q411.6434 229.7246 407.2547 231.6055Q402.8660 233.4863 400.4627 236.5688Q398.0594 239.6514 398.0594 244.4580L398.0594 244.4580Q398.0594 248.9512 400.3582 252.0337Q402.6570 255.1162 406.6277 256.6836Q410.5984 258.2510 415.7186 258.2510ZM521.8240 321.6777L490.4764 321.6777L490.4764 161.1777L521.3016 161.1777L521.3016 180.8223L522.7645 180.8223Q524.9588 176.2246 528.9817 171.3135Q533.0047 166.4023 539.5877 163.0586Q546.1707 159.7148 556.0975 159.7148L556.0975 159.7148Q569.0545 159.7148 579.8172 166.4023Q590.5799 173.0898 597.0062 186.4648Q603.4324 199.8398 603.4324 219.7979L603.4324 219.7979Q603.4324 239.2334 597.1629 252.6606Q590.8934 266.0879 580.1307 273.0366Q569.3680 279.9854 555.8885 279.9854L555.8885 279.9854Q546.3797 279.9854 539.7967 276.7461Q533.2137 273.5068 529.0862 268.7524Q524.9588 263.9980 522.7645 259.2959L522.7645 259.2959L521.8240 259.2959L521.8240 321.6777ZM546.2752 254.8027L546.2752 254.8027Q554.4256 254.8027 560.0159 250.3096Q565.6063 245.8164 568.4798 237.8750Q571.3533 229.9336 571.3533 219.6934L571.3533 219.6934Q571.3533 209.4531 568.4798 201.6162Q565.6063 193.7793 560.0682 189.2861Q554.5301 184.7930 546.2752 184.7930L546.2752 184.7930Q538.2293 184.7930 532.5867 189.1294Q526.9441 193.4658 524.0184 201.2505Q521.0926 209.0352 521.0926 219.6934L521.0926 219.6934Q521.0926 230.2471 524.0706 238.1362Q527.0486 246.0254 532.6912 250.4141Q538.3338 254.8027 546.2752 254.8027Z"
     id="text7"
     style="font-weight:700;font-size:214px;font-family:'Inter Display', Inter, Arial, sans-serif;letter-spacing:-8;fill:#0a0a0a"
     aria-label="lap" />
</svg>
