<svg xmlns="http://www.w3.org/2000/svg" viewBox="0 0 1200 630" width="1200" height="630">
  <rect x="0" y="0" width="1200" height="630" fill="#FFFFFF" />
  <rect x="414.29" y="163.71" width="28.89" height="28.89" fill="#604134" />
  <rect x="447.30" y="163.71" width="28.89" height="28.89" fill="#D7BD96" />
  <rect x="480.32" y="163.71" width="28.89" height="28.89" fill="#292420" />
  <rect x="513.33" y="163.71" width="28.89" height="28.89" fill="#A07E56" />
  <rect x="414.29" y="196.72" width="28.89" height="28.89" fill="#EADABA" />
  <rect x="546.35" y="196.72" width="28.89" height="28.89" fill="#3A312A" />
  <rect x="414.29" y="229.74" width="28.89" height="28.89" fill="#825C43" />
  <rect x="546.35" y="229.74" width="28.89" height="28.89" fill="#D7BD96" />
  <rect x="414.29" y="262.76" width="28.89" height="28.89" fill="#292420" />
  <rect x="447.30" y="262.76" width="28.89" height="28.89" fill="#604134" />
  <rect x="480.32" y="262.76" width="28.89" height="28.89" fill="#EADABA" />
  <rect x="513.33" y="262.76" width="28.89" height="28.89" fill="#3A312A" />
  <rect x="414.29" y="295.77" width="28.89" height="28.89" fill="#A07E56" />
  <rect x="546.35" y="295.77" width="28.89" height="28.89" fill="#292420" />
  <rect x="414.29" y="328.79" width="28.89" height="28.89" fill="#D7BD96" />
  <rect x="546.35" y="328.79" width="28.89" height="28.89" fill="#825C43" />
  <rect x="414.29" y="361.80" width="28.89" height="28.89" fill="#3A312A" />
  <rect x="447.30" y="361.80" width="28.89" height="28.89" fill="#EADABA" />
  <rect x="480.32" y="361.80" width="28.89" height="28.89" fill="#604134" />
  <rect x="513.33" y="361.80" width="28.89" height="28.89" fill="#A07E56" />
  <rect x="624.76" y="163.71" width="28.89" height="28.89" fill="#000000" />
  <rect x="657.78" y="163.71" width="28.89" height="28.89" fill="#000000" />
  <rect x="690.79" y="163.71" width="28.89" height="28.89" fill="#000000" />
  <rect x="723.81" y="163.71" width="28.89" height="28.89" fill="#000000" />
  <rect x="624.76" y="196.72" width="28.89" height="28.89" fill="#000000" />
  <rect x="756.83" y="196.72" width="28.89" height="28.89" fill="#000000" />
  <rect x="624.76" y="229.74" width="28.89" height="28.89" fill="#000000" />
  <rect x="756.83" y="229.74" width="28.89" height="28.89" fill="#000000" />
  <rect x="624.76" y="262.76" width="28.89" height="28.89" fill="#000000" />
  <rect x="657.78" y="262.76" width="28.89" height="28.89" fill="#000000" />
  <rect x="690.79" y="262.76" width="28.89" height="28.89" fill="#000000" />
  <rect x="723.81" y="262.76" width="28.89" height="28.89" fill="#000000" />
  <rect x="624.76" y="295.77" width="28.89" height="28.89" fill="#000000" />
  <rect x="756.83" y="295.77" width="28.89" height="28.89" fill="#000000" />
  <rect x="624.76" y="328.79" width="28.89" height="28.89" fill="#000000" />
  <rect x="756.83" y="328.79" width="28.89" height="28.89" fill="#000000" />
  <rect x="624.76" y="361.80" width="28.89" height="28.89" fill="#000000" />
  <rect x="657.78" y="361.80" width="28.89" height="28.89" fill="#000000" />
  <rect x="690.79" y="361.80" width="28.89" height="28.89" fill="#000000" />
  <rect x="723.81" y="361.80" width="28.89" height="28.89" fill="#000000" />
  <text x="600" y="471.2" text-anchor="middle" font-family="'Source Sans 3', 'Segoe UI', system-ui, sans-serif" font-weight="700" font-size="30" letter-spacing="10" fill="#000000">BLACK BOOK</text>
</svg>
