<svg xmlns="http://www.w3.org/2000/svg" viewBox="0 0 392 252" width="392" height="252">
  <rect x="0" y="0" width="392" height="252" fill="#000000" />
  <rect x="16" y="16" width="28" height="28" fill="#604134" />
  <rect x="48" y="16" width="28" height="28" fill="#D7BD96" />
  <rect x="80" y="16" width="28" height="28" fill="#292420" />
  <rect x="112" y="16" width="28" height="28" fill="#A07E56" />
  <rect x="16" y="48" width="28" height="28" fill="#EADABA" />
  <rect x="144" y="48" width="28" height="28" fill="#3A312A" />
  <rect x="16" y="80" width="28" height="28" fill="#825C43" />
  <rect x="144" y="80" width="28" height="28" fill="#D7BD96" />
  <rect x="16" y="112" width="28" height="28" fill="#292420" />
  <rect x="48" y="112" width="28" height="28" fill="#604134" />
  <rect x="80" y="112" width="28" height="28" fill="#EADABA" />
  <rect x="112" y="112" width="28" height="28" fill="#3A312A" />
  <rect x="16" y="144" width="28" height="28" fill="#A07E56" />
  <rect x="144" y="144" width="28" height="28" fill="#292420" />
  <rect x="16" y="176" width="28" height="28" fill="#D7BD96" />
  <rect x="144" y="176" width="28" height="28" fill="#825C43" />
  <rect x="16" y="208" width="28" height="28" fill="#3A312A" />
  <rect x="48" y="208" width="28" height="28" fill="#EADABA" />
  <rect x="80" y="208" width="28" height="28" fill="#604134" />
  <rect x="112" y="208" width="28" height="28" fill="#A07E56" />
  <rect x="220" y="16" width="28" height="28" fill="#FFFFFF" />
  <rect x="252" y="16" width="28" height="28" fill="#FFFFFF" />
  <rect x="284" y="16" width="28" height="28" fill="#FFFFFF" />
  <rect x="316" y="16" width="28" height="28" fill="#FFFFFF" />
  <rect x="220" y="48" width="28" height="28" fill="#FFFFFF" />
  <rect x="348" y="48" width="28" height="28" fill="#FFFFFF" />
  <rect x="220" y="80" width="28" height="28" fill="#FFFFFF" />
  <rect x="348" y="80" width="28" height="28" fill="#FFFFFF" />
  <rect x="220" y="112" width="28" height="28" fill="#FFFFFF" />
  <rect x="252" y="112" width="28" height="28" fill="#FFFFFF" />
  <rect x="284" y="112" width="28" height="28" fill="#FFFFFF" />
  <rect x="316" y="112" width="28" height="28" fill="#FFFFFF" />
  <rect x="220" y="144" width="28" height="28" fill="#FFFFFF" />
  <rect x="348" y="144" width="28" height="28" fill="#FFFFFF" />
  <rect x="220" y="176" width="28" height="28" fill="#FFFFFF" />
  <rect x="348" y="176" width="28" height="28" fill="#FFFFFF" />
  <rect x="220" y="208" width="28" height="28" fill="#FFFFFF" />
  <rect x="252" y="208" width="28" height="28" fill="#FFFFFF" />
  <rect x="284" y="208" width="28" height="28" fill="#FFFFFF" />
  <rect x="316" y="208" width="28" height="28" fill="#FFFFFF" />
</svg>
