<svg xmlns="http://www.w3.org/2000/svg" viewBox="0 0 140 196" width="140" height="196">
  <rect x="0" y="0" width="28" height="28" fill="#000000" />
  <rect x="28" y="0" width="28" height="28" fill="#000000" />
  <rect x="56" y="0" width="28" height="28" fill="#000000" />
  <rect x="84" y="0" width="28" height="28" fill="#000000" />
  <rect x="0" y="28" width="28" height="28" fill="#000000" />
  <rect x="112" y="28" width="28" height="28" fill="#000000" />
  <rect x="0" y="56" width="28" height="28" fill="#000000" />
  <rect x="112" y="56" width="28" height="28" fill="#000000" />
  <rect x="0" y="84" width="28" height="28" fill="#000000" />
  <rect x="28" y="84" width="28" height="28" fill="#000000" />
  <rect x="56" y="84" width="28" height="28" fill="#000000" />
  <rect x="84" y="84" width="28" height="28" fill="#000000" />
  <rect x="0" y="112" width="28" height="28" fill="#000000" />
  <rect x="112" y="112" width="28" height="28" fill="#000000" />
  <rect x="0" y="140" width="28" height="28" fill="#000000" />
  <rect x="112" y="140" width="28" height="28" fill="#000000" />
  <rect x="0" y="168" width="28" height="28" fill="#000000" />
  <rect x="28" y="168" width="28" height="28" fill="#000000" />
  <rect x="56" y="168" width="28" height="28" fill="#000000" />
  <rect x="84" y="168" width="28" height="28" fill="#000000" />
</svg>
